<svg id="visual" viewBox="0 0 900 600" width="900" height="600" xmlns="http://www.w3.org/2000/svg" xmlns:xlink="http://www.w3.org/1999/xlink" version="1.1"><g stroke-width="1" stroke-linejoin="bevel"><path d="M457 248.1L533 249.1L461 153.4Z" fill="#297ea6" stroke="#297ea6"></path><path d="M533 249.1L550 169.4L461 153.4Z" fill="#15384f" stroke="#15384f"></path><path d="M550 169.4L534 85.7L461 153.4Z" fill="#0c2435" stroke="#0c2435"></path><path d="M534 85.7L454 79.7L461 153.4Z" fill="#15384f" stroke="#15384f"></path><path d="M350 158.4L362 265.1L457 248.1Z" fill="#081a28" stroke="#081a28"></path><path d="M541 332.9L619 257.1L533 249.1Z" fill="#15384f" stroke="#15384f"></path><path d="M533 249.1L619 257.1L550 169.4Z" fill="#081a28" stroke="#081a28"></path><path d="M550 169.4L628 94.7L534 85.7Z" fill="#205a7a" stroke="#205a7a"></path><path d="M457 248.1L541 332.9L533 249.1Z" fill="#0c2435" stroke="#0c2435"></path><path d="M350 158.4L457 248.1L461 153.4Z" fill="#112e42" stroke="#112e42"></path><path d="M457 248.1L434 359.9L541 332.9Z" fill="#15384f" stroke="#15384f"></path><path d="M361 89.7L350 158.4L461 153.4Z" fill="#15384f" stroke="#15384f"></path><path d="M619 257.1L647 164.4L550 169.4Z" fill="#112e42" stroke="#112e42"></path><path d="M362 265.1L434 359.9L457 248.1Z" fill="#0c2435" stroke="#0c2435"></path><path d="M647 164.4L628 94.7L550 169.4Z" fill="#112e42" stroke="#112e42"></path><path d="M637 409.6L615 325.9L541 332.9Z" fill="#081a28" stroke="#081a28"></path><path d="M541 332.9L615 325.9L619 257.1Z" fill="#277297" stroke="#277297"></path><path d="M734 267.1L714 153.4L647 164.4Z" fill="#081a28" stroke="#081a28"></path><path d="M454 79.7L361 89.7L461 153.4Z" fill="#0c2435" stroke="#0c2435"></path><path d="M362 265.1L359 334.9L434 359.9Z" fill="#19435d" stroke="#19435d"></path><path d="M270 258.1L359 334.9L362 265.1Z" fill="#297ea6" stroke="#297ea6"></path><path d="M628 94.7L547 0L534 85.7Z" fill="#081a28" stroke="#081a28"></path><path d="M534 85.7L547 0L454 79.7Z" fill="#15384f" stroke="#15384f"></path><path d="M454 79.7L436 0L361 89.7Z" fill="#205a7a" stroke="#205a7a"></path><path d="M547 0L436 0L454 79.7Z" fill="#00101c" stroke="#00101c"></path><path d="M734 267.1L647 164.4L619 257.1Z" fill="#277297" stroke="#277297"></path><path d="M647 164.4L714 153.4L628 94.7Z" fill="#15384f" stroke="#15384f"></path><path d="M628 94.7L640 0L547 0Z" fill="#205a7a" stroke="#205a7a"></path><path d="M375 415.6L467 424.6L434 359.9Z" fill="#081a28" stroke="#081a28"></path><path d="M434 359.9L467 424.6L541 332.9Z" fill="#205a7a" stroke="#205a7a"></path><path d="M263 174.4L270 258.1L350 158.4Z" fill="#15384f" stroke="#15384f"></path><path d="M350 158.4L270 258.1L362 265.1Z" fill="#277297" stroke="#277297"></path><path d="M288 79.7L350 158.4L361 89.7Z" fill="#297ea6" stroke="#297ea6"></path><path d="M288 79.7L263 174.4L350 158.4Z" fill="#205a7a" stroke="#205a7a"></path><path d="M467 424.6L550 434.6L541 332.9Z" fill="#15384f" stroke="#15384f"></path><path d="M358 0L288 79.7L361 89.7Z" fill="#1d4e6b" stroke="#1d4e6b"></path><path d="M436 0L358 0L361 89.7Z" fill="#19435d" stroke="#19435d"></path><path d="M268 352.9L375 415.6L359 334.9Z" fill="#112e42" stroke="#112e42"></path><path d="M359 334.9L375 415.6L434 359.9Z" fill="#19435d" stroke="#19435d"></path><path d="M452 528.3L558 524.3L550 434.6Z" fill="#15384f" stroke="#15384f"></path><path d="M710 351.9L734 267.1L615 325.9Z" fill="#15384f" stroke="#15384f"></path><path d="M615 325.9L734 267.1L619 257.1Z" fill="#246688" stroke="#246688"></path><path d="M721 91.7L640 0L628 94.7Z" fill="#0c2435" stroke="#0c2435"></path><path d="M550 434.6L637 409.6L541 332.9Z" fill="#277297" stroke="#277297"></path><path d="M807 189.4L721 91.7L714 153.4Z" fill="#1d4e6b" stroke="#1d4e6b"></path><path d="M714 153.4L721 91.7L628 94.7Z" fill="#277297" stroke="#277297"></path><path d="M637 409.6L710 351.9L615 325.9Z" fill="#081a28" stroke="#081a28"></path><path d="M187 262.1L268 352.9L270 258.1Z" fill="#205a7a" stroke="#205a7a"></path><path d="M270 258.1L268 352.9L359 334.9Z" fill="#19435d" stroke="#19435d"></path><path d="M358 0L272 0L288 79.7Z" fill="#112e42" stroke="#112e42"></path><path d="M190 99.7L195 173.4L263 174.4Z" fill="#19435d" stroke="#19435d"></path><path d="M190 99.7L263 174.4L288 79.7Z" fill="#205a7a" stroke="#205a7a"></path><path d="M263 174.4L195 173.4L270 258.1Z" fill="#205a7a" stroke="#205a7a"></path><path d="M721 91.7L722 0L640 0Z" fill="#19435d" stroke="#19435d"></path><path d="M827 83.7L722 0L721 91.7Z" fill="#15384f" stroke="#15384f"></path><path d="M818 264.1L807 189.4L734 267.1Z" fill="#15384f" stroke="#15384f"></path><path d="M734 267.1L807 189.4L714 153.4Z" fill="#277297" stroke="#277297"></path><path d="M195 173.4L187 262.1L270 258.1Z" fill="#15384f" stroke="#15384f"></path><path d="M268 352.9L269 425.6L375 415.6Z" fill="#0c2435" stroke="#0c2435"></path><path d="M452 528.3L550 434.6L467 424.6Z" fill="#00101c" stroke="#00101c"></path><path d="M170 358.9L269 425.6L268 352.9Z" fill="#0c2435" stroke="#0c2435"></path><path d="M637 409.6L713 434.6L710 351.9Z" fill="#1d4e6b" stroke="#1d4e6b"></path><path d="M793 357.9L818 264.1L734 267.1Z" fill="#246688" stroke="#246688"></path><path d="M613 522.3L713 434.6L637 409.6Z" fill="#205a7a" stroke="#205a7a"></path><path d="M272 0L190 99.7L288 79.7Z" fill="#00101c" stroke="#00101c"></path><path d="M195 173.4L98 262.1L187 262.1Z" fill="#19435d" stroke="#19435d"></path><path d="M452 528.3L467 424.6L375 415.6Z" fill="#19435d" stroke="#19435d"></path><path d="M550 434.6L613 522.3L637 409.6Z" fill="#081a28" stroke="#081a28"></path><path d="M793 357.9L734 267.1L710 351.9Z" fill="#1d4e6b" stroke="#1d4e6b"></path><path d="M351 523.3L452 528.3L375 415.6Z" fill="#277297" stroke="#277297"></path><path d="M713 434.6L793 357.9L710 351.9Z" fill="#112e42" stroke="#112e42"></path><path d="M558 524.3L613 522.3L550 434.6Z" fill="#277297" stroke="#277297"></path><path d="M616 600L613 522.3L558 524.3Z" fill="#0c2435" stroke="#0c2435"></path><path d="M900 166.4L827 83.7L807 189.4Z" fill="#081a28" stroke="#081a28"></path><path d="M807 189.4L827 83.7L721 91.7Z" fill="#081a28" stroke="#081a28"></path><path d="M269 425.6L351 523.3L375 415.6Z" fill="#15384f" stroke="#15384f"></path><path d="M98 262.1L170 358.9L187 262.1Z" fill="#15384f" stroke="#15384f"></path><path d="M187 262.1L170 358.9L268 352.9Z" fill="#112e42" stroke="#112e42"></path><path d="M269 425.6L256 510.3L351 523.3Z" fill="#081a28" stroke="#081a28"></path><path d="M827 83.7L821 0L722 0Z" fill="#15384f" stroke="#15384f"></path><path d="M729 530.3L799 438.6L713 434.6Z" fill="#277297" stroke="#277297"></path><path d="M713 434.6L799 438.6L793 357.9Z" fill="#00101c" stroke="#00101c"></path><path d="M900 254.1L807 189.4L818 264.1Z" fill="#081a28" stroke="#081a28"></path><path d="M272 0L165 0L190 99.7Z" fill="#112e42" stroke="#112e42"></path><path d="M190 99.7L102 154.4L195 173.4Z" fill="#081a28" stroke="#081a28"></path><path d="M182 440.6L256 510.3L269 425.6Z" fill="#081a28" stroke="#081a28"></path><path d="M170 358.9L182 440.6L269 425.6Z" fill="#15384f" stroke="#15384f"></path><path d="M90 82.7L102 154.4L190 99.7Z" fill="#19435d" stroke="#19435d"></path><path d="M170 358.9L92 413.6L182 440.6Z" fill="#081a28" stroke="#081a28"></path><path d="M460 600L522 600L452 528.3Z" fill="#297ea6" stroke="#297ea6"></path><path d="M452 528.3L522 600L558 524.3Z" fill="#277297" stroke="#277297"></path><path d="M613 522.3L729 530.3L713 434.6Z" fill="#15384f" stroke="#15384f"></path><path d="M460 600L452 528.3L359 600Z" fill="#112e42" stroke="#112e42"></path><path d="M359 600L452 528.3L351 523.3Z" fill="#00101c" stroke="#00101c"></path><path d="M102 154.4L98 262.1L195 173.4Z" fill="#19435d" stroke="#19435d"></path><path d="M616 600L729 530.3L613 522.3Z" fill="#246688" stroke="#246688"></path><path d="M900 254.1L900 166.4L807 189.4Z" fill="#246688" stroke="#246688"></path><path d="M827 83.7L900 0L821 0Z" fill="#297ea6" stroke="#297ea6"></path><path d="M900 254.1L818 264.1L900 328.9Z" fill="#112e42" stroke="#112e42"></path><path d="M900 328.9L818 264.1L793 357.9Z" fill="#081a28" stroke="#081a28"></path><path d="M522 600L616 600L558 524.3Z" fill="#246688" stroke="#246688"></path><path d="M900 166.4L900 97.7L827 83.7Z" fill="#19435d" stroke="#19435d"></path><path d="M285 600L359 600L351 523.3Z" fill="#277297" stroke="#277297"></path><path d="M165 0L90 82.7L190 99.7Z" fill="#205a7a" stroke="#205a7a"></path><path d="M0 261.1L74 338.9L98 262.1Z" fill="#1d4e6b" stroke="#1d4e6b"></path><path d="M900 439.6L900 328.9L793 357.9Z" fill="#19435d" stroke="#19435d"></path><path d="M900 439.6L793 357.9L799 438.6Z" fill="#081a28" stroke="#081a28"></path><path d="M795 600L817 501.3L729 530.3Z" fill="#246688" stroke="#246688"></path><path d="M729 530.3L817 501.3L799 438.6Z" fill="#15384f" stroke="#15384f"></path><path d="M0 153.4L98 262.1L102 154.4Z" fill="#205a7a" stroke="#205a7a"></path><path d="M98 262.1L74 338.9L170 358.9Z" fill="#0c2435" stroke="#0c2435"></path><path d="M182 440.6L186 522.3L256 510.3Z" fill="#00101c" stroke="#00101c"></path><path d="M82 531.3L186 522.3L182 440.6Z" fill="#112e42" stroke="#112e42"></path><path d="M256 510.3L285 600L351 523.3Z" fill="#15384f" stroke="#15384f"></path><path d="M165 0L95 0L90 82.7Z" fill="#081a28" stroke="#081a28"></path><path d="M90 82.7L0 153.4L102 154.4Z" fill="#081a28" stroke="#081a28"></path><path d="M187 600L285 600L256 510.3Z" fill="#15384f" stroke="#15384f"></path><path d="M900 97.7L900 0L827 83.7Z" fill="#112e42" stroke="#112e42"></path><path d="M74 338.9L92 413.6L170 358.9Z" fill="#15384f" stroke="#15384f"></path><path d="M616 600L733 600L729 530.3Z" fill="#19435d" stroke="#19435d"></path><path d="M817 501.3L900 439.6L799 438.6Z" fill="#15384f" stroke="#15384f"></path><path d="M900 509.3L900 439.6L817 501.3Z" fill="#1d4e6b" stroke="#1d4e6b"></path><path d="M733 600L795 600L729 530.3Z" fill="#00101c" stroke="#00101c"></path><path d="M0 82.7L0 153.4L90 82.7Z" fill="#205a7a" stroke="#205a7a"></path><path d="M74 338.9L0 421.6L92 413.6Z" fill="#081a28" stroke="#081a28"></path><path d="M0 153.4L0 261.1L98 262.1Z" fill="#277297" stroke="#277297"></path><path d="M106 600L187 600L186 522.3Z" fill="#205a7a" stroke="#205a7a"></path><path d="M186 522.3L187 600L256 510.3Z" fill="#205a7a" stroke="#205a7a"></path><path d="M82 531.3L182 440.6L92 413.6Z" fill="#19435d" stroke="#19435d"></path><path d="M900 600L900 509.3L817 501.3Z" fill="#081a28" stroke="#081a28"></path><path d="M0 0L0 82.7L90 82.7Z" fill="#112e42" stroke="#112e42"></path><path d="M0 261.1L0 342.9L74 338.9Z" fill="#112e42" stroke="#112e42"></path><path d="M0 510.3L82 531.3L92 413.6Z" fill="#246688" stroke="#246688"></path><path d="M95 0L0 0L90 82.7Z" fill="#112e42" stroke="#112e42"></path><path d="M0 342.9L0 421.6L74 338.9Z" fill="#1d4e6b" stroke="#1d4e6b"></path><path d="M0 600L106 600L82 531.3Z" fill="#00101c" stroke="#00101c"></path><path d="M82 531.3L106 600L186 522.3Z" fill="#19435d" stroke="#19435d"></path><path d="M795 600L900 600L817 501.3Z" fill="#1d4e6b" stroke="#1d4e6b"></path><path d="M0 421.6L0 510.3L92 413.6Z" fill="#19435d" stroke="#19435d"></path><path d="M0 510.3L0 600L82 531.3Z" fill="#19435d" stroke="#19435d"></path></g></svg>